<svg width="16" height="16" viewBox="0 0 16 16" fill="none" xmlns="http://www.w3.org/2000/svg">
<path d="M13.0175 3.64904C11.7242 2.35571 10.4575 2.32238 9.13087 3.64904L8.3242 4.45571C8.25753 4.52238 8.23087 4.62904 8.25753 4.72238C8.7642 6.48904 10.1775 7.90238 11.9442 8.40904C11.9709 8.41571 11.9975 8.42238 12.0242 8.42238C12.0975 8.42238 12.1642 8.39571 12.2175 8.34238L13.0175 7.53571C13.6775 6.88238 13.9975 6.24904 13.9975 5.60904C14.0042 4.94904 13.6842 4.30904 13.0175 3.64904Z" fill="#111111"/>
<path d="M10.7442 9.01564C10.5509 8.9223 10.3642 8.82897 10.1842 8.7223C10.0375 8.63564 9.89753 8.5423 9.75753 8.4423C9.6442 8.36897 9.51087 8.2623 9.3842 8.15564C9.37087 8.14897 9.3242 8.10897 9.27087 8.05564C9.05087 7.86897 8.8042 7.62897 8.5842 7.3623C8.5642 7.34897 8.53087 7.3023 8.4842 7.2423C8.41753 7.1623 8.3042 7.02897 8.2042 6.87564C8.1242 6.77564 8.03087 6.62897 7.9442 6.4823C7.83753 6.3023 7.7442 6.1223 7.65087 5.93564C7.52849 5.67341 7.18432 5.59551 6.97971 5.80013L3.23087 9.54897C3.1442 9.63564 3.0642 9.8023 3.0442 9.91564L2.6842 12.469C2.61753 12.9223 2.7442 13.349 3.0242 13.6356C3.2642 13.869 3.59753 13.9956 3.95753 13.9956C4.03753 13.9956 4.11753 13.989 4.19753 13.9756L6.75753 13.6156C6.87753 13.5956 7.0442 13.5156 7.1242 13.429L10.8792 9.67394C11.0798 9.47342 11.0044 9.12839 10.7442 9.01564Z" fill="#111111"/>
</svg>
